<svg width="578.000000" height="310.000000" viewBox="0 0 578 310" fill="none" xmlns="http://www.w3.org/2000/svg" xmlns:xlink="http://www.w3.org/1999/xlink">
	<desc>
			Created with Pixso.
	</desc>
	<defs>
		<filter id="filter_2_55_dd" x="304.000000" y="166.000000" width="68.000000" height="37.000000" filterUnits="userSpaceOnUse" color-interpolation-filters="sRGB">
			<feFlood flood-opacity="0" result="BackgroundImageFix"/>
			<feBlend mode="normal" in="SourceGraphic" in2="BackgroundImageFix" result="shape"/>
			<feGaussianBlur stdDeviation="5" result="effect_layerBlur_1"/>
		</filter>
		<filter id="filter_2_54_dd" x="214.000000" y="168.000000" width="68.000000" height="37.000000" filterUnits="userSpaceOnUse" color-interpolation-filters="sRGB">
			<feFlood flood-opacity="0" result="BackgroundImageFix"/>
			<feBlend mode="normal" in="SourceGraphic" in2="BackgroundImageFix" result="shape"/>
			<feGaussianBlur stdDeviation="5" result="effect_layerBlur_1"/>
		</filter>
		<filter id="filter_2_52_dd" x="137.000000" y="179.000000" width="58.000000" height="37.000000" filterUnits="userSpaceOnUse" color-interpolation-filters="sRGB">
			<feFlood flood-opacity="0" result="BackgroundImageFix"/>
			<feBlend mode="normal" in="SourceGraphic" in2="BackgroundImageFix" result="shape"/>
			<feGaussianBlur stdDeviation="5" result="effect_layerBlur_1"/>
		</filter>
		<filter id="filter_2_53_dd" x="381.000000" y="179.000000" width="58.000000" height="37.000000" filterUnits="userSpaceOnUse" color-interpolation-filters="sRGB">
			<feFlood flood-opacity="0" result="BackgroundImageFix"/>
			<feBlend mode="normal" in="SourceGraphic" in2="BackgroundImageFix" result="shape"/>
			<feGaussianBlur stdDeviation="5" result="effect_layerBlur_1"/>
		</filter>
	</defs>
	<path id="Моя Семья" d="M262.18 282.29Q263.37 281.39 263.9 279.6Q267.81 283.29 271.44 284.39Q275.11 285.49 277.4 284.19Q278 283.85 278.43 283.37Q279.65 281.99 279.5 279.41Q280.09 282.29 281.38 283.04Q282.06 283.44 282.61 283.3Q283.13 283.17 283.53 282.58Q284.38 281.39 283.8 278.41Q284.26 279.32 285.01 279.84Q285.86 280.44 287.09 280.51Q287.27 280.51 287.44 280.51Q289.56 280.51 291.68 279.41Q293.97 278.2 295.17 276.31Q295.18 276.28 295.2 276.26Q295.83 275.23 295.85 274.2Q295.87 273.26 295.39 272.3Q296.83 273.28 298.16 273.16Q298.6 273.12 299.03 272.96Q299.68 272.72 300.25 272.34Q301.2 271.7 301.89 270.67Q302.61 269.58 302.79 268.4Q302.89 267.79 302.84 267.15Q302.81 266.77 302.7 266.41Q302.28 265.03 300.69 264Q303.41 263.82 304.27 262.46Q304.33 262.37 304.38 262.27Q304.78 261.5 304.71 260.77Q304.64 260.02 304.09 259.31Q303.98 259.17 303.85 259.05Q302.71 257.93 300.2 258.19Q300.2 255.41 298.82 253.93Q298.75 253.86 298.69 253.8Q297.8 252.89 296.73 252.53Q296 252.28 295.2 252.28Q294.43 252.28 293.72 252.51Q292.61 252.87 291.68 253.8Q291.65 253.84 291.61 253.88Q290.19 255.36 290.19 258.19Q289.86 256.76 288.97 255.99Q288.54 255.63 288 255.41Q287.29 255.11 286.55 255.02Q285.52 254.89 284.43 255.16Q283.32 255.43 282.46 256.05Q281.91 256.45 281.45 257Q281.13 257.39 280.94 257.83Q280.44 258.98 280.79 260.49Q279.88 258.79 278.46 258.1Q277.89 257.82 277.23 257.7Q276.59 257.59 275.96 257.59Q274.35 257.59 272.74 258.34Q271.14 259.08 270.13 260.31Q269.71 260.81 269.39 261.39Q269.16 261.03 268.83 260.93Q268.63 260.86 268.39 260.9Q268.4 260.77 268.41 260.64Q268.5 258.35 267.03 255.99Q265.87 254.12 264.23 253.48Q263.69 253.27 263.09 253.19Q265.46 252.51 265.96 251.15Q265.97 251.13 265.98 251.11Q266.16 250.59 266.1 250.11Q265.98 249.27 265.1 248.55Q263.83 247.51 261.07 247.49Q264 247.41 265 246.5Q265.55 246 265.55 245.5Q265.55 245 265 244.5Q263.96 243.55 260.88 243.41Q264.09 243.49 265.37 241.95Q265.51 241.78 265.63 241.59Q266.28 240.57 266.15 239.66Q266.03 238.78 265.19 238Q265.44 237.96 265.69 237.91Q267.51 237.51 269.15 236.24Q270.97 234.83 271.85 232.98Q271.86 232.94 271.88 232.9Q272.22 233.24 272.58 233.26Q273.07 233.28 273.59 232.7Q273.72 233.5 274.18 233.97Q274.76 234.56 275.84 234.66Q277.56 234.79 279.54 232.78Q278.12 234.43 278.33 235.8Q278.46 236.6 278.93 237.06Q279.39 237.53 280.18 237.66Q281.79 237.9 283.8 235.8Q283.8 236.66 284.13 237.36Q284.49 238.11 285.24 238.68Q286.7 239.78 288.85 240.15Q289.93 240.32 291 240.32Q292.07 240.32 293.15 240.15Q295.3 239.78 296.74 238.68Q297.52 238.1 297.88 237.32Q298.2 236.64 298.2 235.8Q298.2 239.1 299.08 240.2Q299.53 240.75 299.98 240.75Q300.44 240.75 300.89 240.2Q301.79 239.1 301.79 235.8Q303.43 235.28 304.21 234.16Q304.48 233.77 304.65 233.31Q304.88 232.68 304.95 232.03Q305.09 230.82 304.7 229.55Q304.33 228.37 303.61 227.46Q303.14 226.88 302.52 226.4Q302.03 226.01 301.46 225.81Q300.28 225.38 298.79 225.79Q300.45 224.34 300.54 222.8Q300.54 222.76 300.54 222.72Q300.57 221.75 300.21 220.97Q299.97 220.45 299.54 220.01Q299.11 219.55 298.59 219.26Q297.83 218.84 296.88 218.79Q296.81 218.78 296.74 218.78Q295.22 218.76 293.69 220.2Q294.21 218.78 293.99 217.48Q293.87 216.77 293.54 216.1Q293.34 215.7 293.09 215.33Q292.18 213.94 290.63 212.95Q290.18 212.66 289.71 212.42Q288.15 211.62 286.34 211.32Q284.31 210.96 282.54 211.47Q282.26 211.56 281.99 211.66Q281.25 211.93 280.67 212.4Q279.69 213.2 279.18 214.59Q279.27 212.82 278.48 211.63Q278.16 211.14 277.69 210.76Q277.04 210.19 276.29 209.84Q275.21 209.35 273.93 209.29Q272.7 209.23 271.62 209.6Q270.81 209.88 270.08 210.39Q269.64 210.7 269.31 211.09Q268.37 212.23 268.29 214.1Q267.96 212.65 267.06 211.77Q266.66 211.38 266.15 211.1Q264.49 210.19 262.29 210.24Q261.04 210.27 259.86 210.56Q258.96 210.78 258.09 211.15Q256.29 211.91 255.18 213.25Q255.06 213.4 254.94 213.56Q254.55 214.08 254.34 214.66Q253.92 215.81 254.18 217.2Q253.23 215.9 251.99 215.51Q251.42 215.33 250.79 215.35Q250.17 215.36 249.58 215.5Q248.26 215.8 247.08 216.71Q245.95 217.58 245.31 218.71Q244.99 219.28 244.78 219.91Q244.62 220.45 244.61 220.98Q244.59 222.33 245.59 223.69Q244.95 223.45 244.34 223.49Q243.41 223.55 242.54 224.26Q241.1 225.4 240 227.45Q239.24 228.88 238.8 230.39Q238.61 231.06 238.49 231.75Q238.09 234 238.53 235.8Q238.81 236.86 239.48 237.51Q239.94 237.95 240.58 238.2Q239.39 238.2 238.49 238.71Q237.67 239.19 237.09 240.1Q236.81 240.55 236.59 241.04Q235.9 242.58 235.9 244.45Q235.9 246.32 236.57 247.9Q236.78 248.39 237.04 248.84Q237.6 249.79 238.43 250.28Q239.31 250.79 240.49 250.79Q237.94 250.98 236.67 252.35Q236.6 252.42 236.53 252.5Q235.82 253.36 235.56 254.33Q235.37 255.06 235.43 255.85Q235.51 256.7 235.85 257.44Q236.25 258.3 237 259Q238.39 260.29 241.1 260.19Q237.8 261 236.95 262.24Q236.52 262.86 236.64 263.35Q236.76 263.84 237.44 264.2Q238.8 264.91 242 264Q240.99 264.73 240.57 265.71Q240.25 266.47 240.29 267.4Q240.3 267.67 240.34 267.94Q240.56 269.75 241.68 271.45Q242.8 273.11 244.36 273.97Q244.64 274.13 244.93 274.26Q245.81 274.63 246.67 274.57Q247.7 274.5 248.69 273.79Q246.88 276.7 247.49 278.46Q247.81 279.35 248.43 279.71Q249.02 280.06 249.89 279.94Q251.69 279.7 253.5 276.7Q252.96 278.6 253.56 280.03Q253.75 280.46 254.04 280.85Q254.62 281.6 255.37 282.13Q256.24 282.74 257.33 283.04Q258.49 283.36 259.6 283.24Q260.46 283.15 261.29 282.8Q261.77 282.6 262.18 282.29ZM4.78 264.97Q6.18 266.1 8.49 266.1Q8.39 273.89 9.15 277.99Q9.91 282.09 11.01 283.24Q11.59 283.85 12.08 283.78Q12.52 283.73 12.89 283.14Q13.69 281.9 13.69 278.99Q13.69 281.11 14.73 282.36Q14.98 282.65 15.28 282.9Q16.03 283.5 16.88 283.82Q17.86 284.19 18.99 284.19Q20.16 284.19 21.16 283.79Q21.97 283.47 22.68 282.9Q23.01 282.63 23.27 282.31Q24.29 281.07 24.29 278.99Q27.58 279.9 29.02 278.7Q29.71 278.14 29.93 277.43Q30.18 276.63 29.83 275.65Q29.82 275.61 29.8 275.58Q29.13 273.78 26 272.89Q29.29 272.89 30.39 271.55Q30.92 270.89 30.94 270.23Q30.96 269.53 30.39 268.81Q29.29 267.4 26 267.4Q28.3 267.4 29.5 266.24Q29.59 266.15 29.68 266.05Q30.44 265.2 30.66 264.23Q30.8 263.64 30.73 263Q30.67 262.25 30.34 261.64Q29.93 260.85 29.1 260.29Q29.4 260.27 29.69 260.21Q30.75 259.98 31.68 259.19Q32.53 258.5 33.07 257.62Q33.31 257.23 33.49 256.8Q34.3 256.51 35.1 255.99Q34.62 256.87 34.64 257.73Q34.66 258.65 35.25 259.56Q36.4 261.29 38.54 262.56Q40.69 263.81 42.79 263.85Q43.96 263.88 44.79 263.37Q45.45 262.95 45.89 262.2Q47.11 263.04 48.28 263Q48.76 262.98 49.24 262.81Q49.75 262.62 50.22 262.34Q51.24 261.72 52 260.66Q52.77 259.56 53.02 258.35Q53.13 257.84 53.14 257.31Q53.16 256.71 52.98 256.17Q52.62 255.1 51.48 254.29Q52.8 255.09 54 255.29Q54.32 255.83 54.76 255.96Q55.13 256.07 55.59 255.9Q55.88 256.53 56.37 256.93Q57.21 257.6 58.59 257.6Q57.1 257.83 56.06 258.64Q55.3 259.23 54.78 260.14Q54.42 260.79 54.18 261.49Q53.63 263.08 53.73 264.91Q53.85 266.74 54.61 268.25Q54.92 268.88 55.34 269.45Q55.84 270.11 56.49 270.55Q57.75 271.4 59.59 271.4Q55.81 271.4 54.54 272.55Q53.92 273.11 53.91 273.69Q53.9 274.28 54.54 274.89Q55.81 276.09 59.59 276.09Q58.8 278.16 59.43 279.61Q59.43 279.63 59.44 279.65Q59.79 280.41 60.35 280.93Q60.86 281.41 61.54 281.7Q62.19 281.97 62.84 281.99Q63.65 282.03 64.47 281.7Q64.56 281.67 64.65 281.62Q66.03 280.97 66.79 278.99Q67.03 281.14 68.24 282.27Q68.49 282.51 68.79 282.7Q69.58 283.21 70.45 283.43Q71.45 283.68 72.55 283.53Q73.64 283.4 74.54 282.93Q75.34 282.5 76 281.8Q76.25 281.53 76.44 281.22Q77.33 279.82 77.09 277.7Q81 277.7 82.29 276.7Q82.94 276.2 82.94 275.7Q82.94 275.2 82.29 274.7Q81 273.69 77.09 273.69Q78.47 273.69 79.48 273.1Q80.1 272.74 80.59 272.16Q81.9 270.59 82.34 268.25Q82.63 266.74 82.54 265.24Q82.5 264.42 82.34 263.61Q81.9 261.29 80.59 259.75Q80.08 259.14 79.44 258.77Q78.43 258.19 77.09 258.19Q79.49 258.19 80.68 257.09Q81.59 256.28 81.82 255.3Q81.9 254.96 81.9 254.6Q81.9 254.2 81.81 253.83Q81.56 252.88 80.68 252.09Q79.49 250.99 77.09 250.99Q78.49 250.99 79.55 250.39Q80.15 250.04 80.63 249.5Q80.88 249.23 81.09 248.95Q82.08 247.6 82.44 245.79Q82.67 244.69 82.67 243.59Q82.67 242.49 82.44 241.39Q82.07 239.54 81.04 238.19Q80.85 237.94 80.63 237.71Q80.13 237.14 79.5 236.78Q78.46 236.19 77.09 236.19Q79.86 236.19 80.93 234.85Q81.02 234.73 81.1 234.61Q81.63 233.76 81.6 232.92Q81.57 232.18 81.1 231.46Q81.03 231.35 80.95 231.25Q79.89 229.9 77.09 229.9Q80.59 229.9 81.73 228.5Q82.33 227.79 82.32 227.08Q82.31 226.38 81.73 225.7Q80.59 224.31 77.09 224.31Q80.81 224.31 82 222.82Q82.61 222.05 82.6 221.29Q82.59 220.55 82 219.81Q80.81 218.3 77.09 218.3Q77.87 216.84 77.57 215.64Q77.52 215.44 77.44 215.25Q77.16 214.55 76.68 214.03Q76.24 213.56 75.63 213.25Q75.06 212.94 74.45 212.86Q73.74 212.75 72.99 212.95Q72.85 212.99 72.72 213.04Q71.51 213.47 70.7 215Q70.62 213.06 69.62 211.9Q69.38 211.62 69.09 211.39Q68.41 210.85 67.64 210.56Q66.71 210.22 65.64 210.24Q64.72 210.27 63.89 210.56Q62.97 210.89 62.18 211.56Q61.81 211.86 61.55 212.24Q60.71 213.39 60.79 215.2Q58.39 213.68 56.64 213.9Q55.32 214.05 54.54 214.78Q54.29 215.01 54.1 215.3Q53.91 215.57 53.8 215.88Q53.43 216.89 53.88 218.2Q54.49 219.89 56.81 221.4Q54.49 219.98 52.78 220.25Q51.5 220.44 50.78 221.17Q50.56 221.4 50.39 221.69Q50.25 221.94 50.16 222.2Q49.81 223.22 50.24 224.5Q50.8 226.09 53.1 227.5Q50.9 226.18 49.14 226.5Q48.05 226.69 47.31 227.29Q46.87 227.65 46.55 228.16Q46.26 228.62 46.13 229.11Q45.86 230.08 46.19 231.21Q46.7 232.9 48.99 234.29Q47.71 233.52 46.52 233.62Q46.02 233.66 45.53 233.85Q44.73 234.16 44.1 234.68Q43.45 235.23 42.99 236Q42.27 235.72 41.57 235.76Q40.72 235.8 39.89 236.29Q41.23 234.88 41.29 233.41Q41.31 232.9 41.18 232.39Q40.96 231.49 40.45 230.81Q39.81 229.99 38.74 229.51Q38.5 229.4 38.25 229.32Q36.46 228.79 34.1 230.19Q37.1 228.41 37.5 226.92Q37.69 226.18 37.41 225.72Q37.12 225.24 36.32 225.06Q34.79 224.7 31.9 226.5Q34 225.15 34.45 223.39Q34.47 223.3 34.49 223.21Q34.73 222.13 34.51 221.15Q34.34 220.4 33.91 219.72Q33.44 218.97 32.79 218.45Q32.04 217.85 31.05 217.57Q30.93 217.53 30.82 217.5Q29.05 217.09 26.9 218.3Q27.36 217.15 27.12 216.17Q27.01 215.69 26.73 215.25Q26.52 214.91 26.26 214.62Q25.5 213.74 24.29 213.25Q23.21 212.8 22.14 212.82Q21.64 212.84 21.14 212.95Q20.65 213.06 20.25 213.31Q19.38 213.84 18.89 215Q18.89 213.14 17.99 211.97Q17.72 211.62 17.38 211.34Q16.82 210.88 16.19 210.58Q15.12 210.08 13.84 210.05Q12.63 210.02 11.57 210.41Q10.84 210.68 10.18 211.15Q9.78 211.43 9.48 211.79Q8.56 212.89 8.49 214.69Q5.39 214.69 4.34 215.91Q3.82 216.5 3.82 217.1Q3.82 217.7 4.34 218.3Q5.39 219.5 8.49 219.5Q4.71 219.5 3.44 221.01Q2.82 221.74 2.81 222.49Q2.81 223.25 3.44 224.01Q4.71 225.5 8.49 225.5Q6.42 225.5 5.09 226.5Q4.56 226.9 4.15 227.45Q3.76 227.98 3.48 228.55Q2.7 230.12 2.7 232.07Q2.7 233.94 3.43 235.46Q3.73 236.09 4.15 236.66Q4.54 237.19 5.05 237.57Q6.38 238.59 8.49 238.59Q7.66 238.59 6.98 238.9Q6.18 239.28 5.59 240.1Q4.49 241.59 4.1 243.79Q3.94 244.69 3.91 245.6Q3.87 246.9 4.1 248.21Q4.49 250.4 5.59 251.92Q6.17 252.71 6.95 253.08Q7.64 253.41 8.49 253.41Q6.18 253.41 4.78 254.54Q4.36 254.87 4.02 255.31Q3.58 255.89 3.27 256.54Q2.58 257.99 2.58 259.75Q2.58 261.41 3.19 262.79Q3.52 263.53 4.02 264.2Q4.36 264.63 4.78 264.97ZM208.49 232.87Q208.07 232.7 207.58 232.7Q207.53 231.78 207.1 231.1Q206.74 230.51 206.09 230.09Q205.86 229.94 205.62 229.82Q204.4 229.19 202.85 229.19Q201.05 229.19 199.67 229.94Q199.62 229.97 199.58 229.99Q198.94 230.36 198.6 230.9Q198.18 231.56 198.18 232.48Q198.18 231.58 197.8 230.88Q197.43 230.22 196.69 229.75Q196.51 229.63 196.32 229.53Q194.96 228.8 193.2 228.8Q191.49 228.8 190.14 229.49Q189.91 229.61 189.69 229.75Q188.96 230.22 188.58 230.88Q188.2 231.58 188.2 232.48Q188.2 229.51 187 228.55Q186.41 228.08 185.82 228.08Q185.21 228.07 184.59 228.55Q183.39 229.51 183.39 232.48Q183.39 229.6 182.29 228.65Q181.74 228.17 181.19 228.17Q180.64 228.17 180.09 228.65Q178.99 229.6 178.99 232.48Q178.83 231.4 178.22 230.69Q177.78 230.17 177.09 229.85Q176.83 229.72 176.56 229.63Q175.18 229.13 173.55 229.36Q172.22 229.53 171.13 230.14Q170.63 230.42 170.18 230.8Q169.48 231.4 169.22 232.15Q168.95 232.9 169.11 233.8Q168.95 233.65 168.78 233.54Q168.01 233.08 166.74 233.46Q165.2 233.9 163.54 235.14Q161.9 236.39 160.54 238Q159.19 239.59 158.68 241.1Q158.31 242.25 158.7 242.99Q158.81 243.21 159 243.4Q157.92 243.45 157.17 243.97Q156.51 244.41 156.09 245.2Q156.03 245.32 155.97 245.44Q155.19 247.04 155.24 249.04Q155.28 250.77 155.97 252.18Q156.14 252.52 156.34 252.85Q156.84 253.64 157.57 254.03Q158.35 254.46 159.39 254.41Q158.45 254.82 157.95 255.53Q157.37 256.35 157.34 257.56Q157.34 257.65 157.34 257.74Q157.34 259.89 158.44 262.05Q159.48 264.08 161.13 265.01Q161.31 265.11 161.49 265.2Q161.05 265.42 160.68 265.73Q160.07 266.26 159.68 267.05Q159.37 267.73 159.28 268.43Q159.2 269.03 159.29 269.64Q159.35 270.01 159.49 270.33Q159.86 271.17 160.82 271.74Q159.97 271.26 159.14 271.29Q158.53 271.3 157.92 271.6Q157.61 271.75 157.33 271.94Q156.29 272.63 155.58 273.82Q155.03 274.76 154.84 275.76Q154.73 276.35 154.75 276.97Q154.77 277.6 155.02 278.12Q155.41 278.95 156.39 279.51Q156.39 281.51 157.39 282.56Q157.44 282.61 157.49 282.65Q158.21 283.34 159.06 283.58Q159.5 283.7 159.98 283.7Q160.5 283.7 160.99 283.56Q161.8 283.31 162.49 282.65Q162.54 282.61 162.59 282.56Q163.59 281.51 163.59 279.51Q163.59 280.76 164.18 281.62Q164.52 282.12 165.08 282.48Q165.4 282.7 165.74 282.86Q167.02 283.48 168.59 283.48Q170.22 283.48 171.51 282.82Q171.8 282.67 172.09 282.48Q172.67 282.11 173.03 281.58Q173.6 280.73 173.6 279.51Q174.51 279.95 175.38 279.88Q176.23 279.8 177.04 279.24L177.05 279.23Q178.7 278.09 179.7 275.99Q180.66 273.99 180.5 272.08Q180.49 271.99 180.48 271.89Q180.38 270.82 179.83 270.1Q179.35 269.48 178.52 269.11Q179.18 269.4 179.8 269.34Q180.21 269.3 180.61 269.1Q180.71 269.26 180.82 269.41Q181.8 270.68 183.44 271.45Q185.29 272.3 186.9 271.99Q186.29 273.08 186.25 274.84Q186.2 276.6 186.83 277.94Q187.29 278.87 188 279.16Q188.32 279.29 188.69 279.29Q188.49 281.51 189.18 282.29Q189.53 282.69 189.91 282.72Q190.29 282.74 190.69 282.39Q191.49 281.7 191.69 279.51Q191.69 281.64 192.75 282.57Q192.93 282.73 193.13 282.85Q193.84 283.27 194.56 283.28Q195.32 283.29 196.08 282.85Q196.36 282.7 196.58 282.49Q197.6 281.55 197.6 279.51Q197.6 281.9 198.65 282.68Q199.15 283.07 199.67 283.08Q200.22 283.1 200.8 282.68Q201.9 281.9 201.9 279.51Q202.38 279.86 202.91 279.96Q203.69 280.11 204.58 279.7Q206.09 278.99 207.24 277.45Q208.39 275.89 208.63 274.31Q208.76 273.52 208.52 272.88Q208.26 272.21 207.58 271.69Q209.05 271.69 210.03 271Q210.53 270.65 210.9 270.1Q211.15 269.74 211.35 269.34Q212 268 212 266.35Q212 264.64 211.31 263.29Q211.13 262.94 210.9 262.61Q210.52 262.04 209.99 261.67Q209.02 261 207.58 261Q209.09 261 210.07 260.29Q210.47 260 210.78 259.61Q211.38 258.85 211.66 258Q211.9 257.24 211.9 256.41Q211.9 255.46 211.6 254.63Q211.32 253.88 210.78 253.21Q210.45 252.78 210.03 252.49Q209.05 251.8 207.58 251.8Q209.64 251.8 210.48 250.78Q210.63 250.61 210.73 250.4Q211.12 249.67 211.11 248.95Q211.1 248.27 210.73 247.6Q210.63 247.39 210.48 247.22Q209.64 246.2 207.58 246.2Q208.09 246.2 208.52 246.03Q209.56 245.61 210.2 244.2Q211.1 242.2 211.1 239.52Q211.1 236.81 210.2 234.75Q209.55 233.29 208.49 232.87ZM564.99 232.87Q564.57 232.7 564.08 232.7Q564.03 231.78 563.6 231.1Q563.24 230.51 562.59 230.09Q562.36 229.94 562.12 229.82Q560.9 229.19 559.35 229.19Q557.55 229.19 556.17 229.94Q556.12 229.97 556.08 229.99Q555.44 230.36 555.1 230.9Q554.68 231.56 554.68 232.48Q554.68 231.58 554.3 230.88Q553.93 230.22 553.19 229.75Q553.01 229.63 552.82 229.53Q551.46 228.8 549.7 228.8Q547.99 228.8 546.64 229.49Q546.41 229.61 546.19 229.75Q545.46 230.22 545.08 230.88Q544.7 231.58 544.7 232.48Q544.7 229.51 543.5 228.55Q542.91 228.08 542.32 228.08Q541.71 228.07 541.09 228.55Q539.89 229.51 539.89 232.48Q539.89 229.6 538.79 228.65Q538.24 228.17 537.69 228.17Q537.14 228.17 536.59 228.65Q535.49 229.6 535.49 232.48Q535.33 231.4 534.72 230.69Q534.28 230.17 533.59 229.85Q533.33 229.72 533.06 229.63Q531.68 229.13 530.05 229.36Q528.71 229.53 527.63 230.14Q527.13 230.42 526.68 230.8Q525.98 231.4 525.72 232.15Q525.45 232.9 525.61 233.8Q525.45 233.65 525.28 233.54Q524.51 233.08 523.24 233.46Q521.7 233.9 520.04 235.14Q518.4 236.39 517.04 238Q515.69 239.59 515.18 241.1Q514.81 242.25 515.2 242.99Q515.31 243.21 515.5 243.4Q514.42 243.45 513.67 243.97Q513.01 244.41 512.59 245.2Q512.53 245.32 512.47 245.44Q511.69 247.04 511.74 249.04Q511.78 250.77 512.47 252.18Q512.64 252.52 512.84 252.85Q513.34 253.64 514.07 254.03Q514.85 254.46 515.89 254.41Q514.95 254.82 514.45 255.53Q513.87 256.35 513.84 257.56Q513.84 257.65 513.84 257.74Q513.84 259.89 514.94 262.05Q515.98 264.08 517.63 265.01Q517.81 265.11 517.99 265.2Q517.55 265.42 517.18 265.73Q516.57 266.26 516.18 267.05Q515.87 267.73 515.78 268.43Q515.7 269.03 515.79 269.64Q515.84 270.01 515.99 270.33Q516.36 271.17 517.32 271.74Q516.47 271.26 515.64 271.29Q515.03 271.3 514.43 271.6Q514.11 271.75 513.83 271.94Q512.79 272.63 512.08 273.82Q511.53 274.76 511.34 275.76Q511.23 276.35 511.25 276.97Q511.27 277.6 511.52 278.12Q511.91 278.95 512.89 279.51Q512.89 281.51 513.89 282.56Q513.94 282.61 513.99 282.65Q514.71 283.34 515.56 283.58Q516 283.7 516.48 283.7Q517.01 283.7 517.49 283.56Q518.3 283.31 518.99 282.65Q519.04 282.61 519.09 282.56Q520.09 281.51 520.09 279.51Q520.09 280.76 520.68 281.62Q521.02 282.12 521.58 282.48Q521.9 282.7 522.24 282.86Q523.52 283.48 525.09 283.48Q526.72 283.48 528.01 282.82Q528.3 282.67 528.59 282.48Q529.17 282.11 529.53 281.58Q530.1 280.73 530.1 279.51Q531.01 279.95 531.88 279.88Q532.73 279.8 533.54 279.24L533.55 279.23Q535.2 278.09 536.2 275.99Q537.15 273.99 537 272.08Q536.99 271.99 536.98 271.89Q536.88 270.82 536.33 270.1Q535.84 269.48 535.02 269.11Q535.68 269.4 536.3 269.34Q536.71 269.3 537.11 269.1Q537.21 269.26 537.32 269.41Q538.3 270.68 539.94 271.45Q541.79 272.3 543.4 271.99Q542.79 273.08 542.75 274.84Q542.7 276.6 543.33 277.94Q543.79 278.87 544.5 279.16Q544.82 279.29 545.19 279.29Q544.99 281.51 545.68 282.29Q546.03 282.69 546.41 282.72Q546.79 282.74 547.19 282.39Q547.99 281.7 548.19 279.51Q548.19 281.64 549.25 282.57Q549.43 282.73 549.63 282.85Q550.34 283.27 551.06 283.28Q551.82 283.29 552.58 282.85Q552.86 282.7 553.08 282.49Q554.1 281.55 554.1 279.51Q554.1 281.9 555.15 282.68Q555.65 283.07 556.17 283.08Q556.72 283.1 557.3 282.68Q558.4 281.9 558.4 279.51Q558.88 279.86 559.41 279.96Q560.19 280.11 561.08 279.7Q562.59 278.99 563.74 277.45Q564.89 275.89 565.13 274.31Q565.26 273.52 565.02 272.88Q564.76 272.21 564.08 271.69Q565.55 271.69 566.53 271Q567.03 270.65 567.4 270.1Q567.65 269.74 567.85 269.34Q568.5 268 568.5 266.35Q568.5 264.64 567.81 263.29Q567.63 262.94 567.4 262.61Q567.02 262.04 566.49 261.67Q565.52 261 564.08 261Q565.59 261 566.57 260.29Q566.97 260 567.28 259.61Q567.88 258.85 568.16 258Q568.4 257.24 568.4 256.41Q568.4 255.46 568.1 254.63Q567.82 253.88 567.28 253.21Q566.95 252.78 566.53 252.49Q565.55 251.8 564.08 251.8Q566.14 251.8 566.98 250.78Q567.13 250.61 567.23 250.4Q567.62 249.67 567.61 248.95Q567.6 248.27 567.23 247.6Q567.13 247.39 566.98 247.22Q566.14 246.2 564.08 246.2Q564.59 246.2 565.02 246.03Q566.06 245.61 566.7 244.2Q567.6 242.2 567.6 239.52Q567.6 236.81 566.7 234.75Q566.05 233.29 564.99 232.87ZM107.59 281.12Q108.2 280.6 108.5 279.7Q115.5 284.71 118.7 284.71Q119.85 284.71 120.56 284.15Q121.83 283.15 121.7 280.38Q121.94 282.25 122.98 282.99Q123.23 283.17 123.53 283.29Q124.39 283.62 125.16 283.49Q125.8 283.38 126.39 282.95Q126.6 282.79 126.77 282.6Q127.62 281.6 127.29 279.6Q127.75 281.1 128.73 281.61Q129.05 281.79 129.44 281.85Q130.17 281.96 130.82 281.79Q131.56 281.58 132.2 280.99Q132.59 280.64 132.79 280.19Q133.2 279.27 132.79 277.99Q133.36 278.99 134.2 279.34Q134.54 279.48 134.94 279.51Q135.68 279.56 136.36 279.37Q136.93 279.22 137.45 278.89Q138.1 278.49 138.51 277.92Q138.82 277.48 138.99 276.94Q139.08 276.68 139.1 276.42Q139.22 275.41 138.5 274.31Q139.82 275.19 140.99 275.02Q141.14 275 141.28 274.96Q141.99 274.77 142.54 274.37Q143.02 274.01 143.38 273.5Q143.8 272.93 143.96 272.3Q144.11 271.71 144.04 271.06Q144.02 270.84 143.96 270.64Q143.66 269.53 142.41 268.69Q143.58 268.94 144.52 268.58Q145.18 268.34 145.73 267.81Q146.26 267.3 146.63 266.69Q147.23 265.73 147.44 264.54Q147.73 262.96 147.33 261.59Q147.23 261.26 147.09 260.95Q146.87 260.43 146.51 260.03Q145.72 259.17 144.29 258.9Q145.14 258.8 145.79 258.38Q146.42 257.96 146.85 257.22Q147.7 255.7 147.8 253.55Q147.86 252.23 147.67 250.94Q147.55 250.14 147.34 249.35Q146.8 247.3 145.65 246.01Q145.05 245.31 144.29 245.01Q143.61 244.74 142.8 244.79Q143.71 244.21 144.07 243.4Q144.33 242.79 144.29 242.05Q144.25 241.37 144.07 240.73Q143.78 239.72 143.14 238.81Q142.42 237.78 141.45 237.15Q140.99 236.86 140.48 236.66Q139.88 236.41 139.29 236.41Q138.3 236.41 137.3 237.1Q137.86 236.1 137.73 235.2Q137.68 234.85 137.52 234.51Q137.31 234.03 136.99 233.63Q136.49 233.04 135.74 232.65Q135.01 232.27 134.23 232.14Q133.69 232.05 133.13 232.09Q132.66 232.13 132.27 232.32Q131.55 232.68 131.1 233.61Q131.45 231.64 130.67 230.37Q130.57 230.2 130.44 230.04Q129.97 229.43 129.36 229.03Q128.62 228.54 127.69 228.36Q126.92 228.19 126.17 228.27Q125.29 228.36 124.44 228.8Q124.08 228.99 123.78 229.24Q122.8 230.09 122.49 231.7Q122.49 231.04 122.21 230.52Q121.85 229.87 121.04 229.46Q119.6 228.7 117.7 228.7Q115.8 228.7 114.33 229.46Q113.52 229.87 113.17 230.52Q112.89 231.04 112.89 231.7Q112.66 230.53 111.95 229.92Q111.75 229.74 111.5 229.6Q111.02 229.34 110.51 229.24Q109.85 229.11 109.13 229.26Q108.36 229.41 107.76 229.81Q107.39 230.06 107.08 230.41Q106.99 230.51 106.91 230.62Q106.33 231.47 106.59 232.9Q105.79 230.81 104.55 230.51Q104.55 230.51 104.54 230.51Q103.95 230.36 103.46 230.51Q102.91 230.69 102.49 231.24Q102.46 231.27 102.44 231.31Q101.71 232.36 102.39 234.39Q101.71 233.41 100.81 233.12Q100.51 233.02 100.2 233Q99.63 232.95 99.1 233.07Q98.42 233.23 97.8 233.66Q97.28 234 96.92 234.47Q96.51 234.99 96.29 235.66Q96.18 235.99 96.17 236.32Q96.14 237.25 96.8 238.2Q95.23 237.19 93.87 237.41Q93.75 237.43 93.63 237.46Q92.71 237.68 92.07 238.22Q91.71 238.54 91.43 238.95Q91.24 239.25 91.11 239.58Q90.75 240.5 90.89 241.61Q90.92 241.79 90.96 241.96Q91.29 243.23 92.8 244.2Q91.96 244.04 91.27 244.29Q90.64 244.52 90.14 245.11Q90.04 245.21 89.96 245.32Q89.06 246.46 88.74 248.06Q88.46 249.5 88.78 250.79Q88.85 251.05 88.94 251.31Q89.21 252.03 89.73 252.47Q90.27 252.94 91.09 253.09Q90.21 253.09 89.59 253.49Q89.15 253.76 88.84 254.24Q88.59 254.61 88.43 255.02Q88.1 255.86 88.13 256.85Q88.17 257.92 88.59 258.79Q88.74 259.1 88.94 259.39Q89.22 259.8 89.61 260.06Q90.25 260.49 91.19 260.49Q88.7 260.87 87.91 262.24Q87.85 262.35 87.79 262.46Q87.44 263.23 87.55 263.93Q87.66 264.62 88.23 265.25Q88.29 265.31 88.36 265.37Q89.55 266.47 92.09 266.1Q91.91 266.24 91.77 266.42Q91.26 267.11 91.53 268.4Q91.89 269.98 93.04 271.84Q93.83 273.12 94.81 274.24Q95.25 274.74 95.73 275.21Q97.29 276.7 98.78 277.41Q99.91 277.92 100.71 277.59Q100.97 277.49 101.2 277.28Q100.87 278.23 101.09 279.04Q101.22 279.52 101.54 279.94Q101.8 280.29 102.11 280.59Q102.83 281.25 103.83 281.6Q104.89 281.96 105.88 281.83Q106.27 281.78 106.64 281.65Q107.18 281.47 107.59 281.12ZM331.43 282.6Q332.52 281.84 333 280.19Q336 283 338.74 283.85Q341.49 284.7 343.12 283.71L343.13 283.7Q343.49 283.49 343.76 283.19Q344.75 282.12 344.6 279.99Q344.94 281.12 345.7 281.77Q346.22 282.22 346.94 282.43Q347.5 282.61 348.08 282.67Q349.3 282.8 350.58 282.39Q352.09 281.92 353.12 280.95Q353.39 280.7 353.63 280.41Q354.11 279.83 354.29 279.17Q354.55 278.21 354.19 277.09Q354.68 277.74 355.33 278Q355.88 278.23 356.54 278.19Q356.72 278.17 356.91 278.15Q358.17 277.97 359.34 277.14Q360.54 276.29 361.15 275.14Q361.23 274.99 361.3 274.84Q361.56 274.26 361.54 273.69Q361.52 272.94 361 272.21Q362.61 272.54 363.51 271.89Q363.66 271.78 363.79 271.64Q364.24 271.17 364.36 270.62Q364.48 270.07 364.28 269.45Q364.23 269.29 364.15 269.14Q363.63 268.15 361.91 267.79Q361.91 266.89 361.52 266.22Q361.18 265.62 360.54 265.2Q360.29 265.03 360.02 264.89Q358.86 264.29 357.39 264.29Q355.92 264.29 354.76 264.89Q354.49 265.03 354.24 265.2Q353.63 265.61 353.3 266.18Q352.9 266.87 352.9 267.79Q352.8 267.32 352.55 266.97Q352.05 266.25 350.95 265.96Q349.29 265.49 347.19 265.71Q346.71 265.76 346.25 265.83Q344.64 266.09 343.08 266.71Q341.11 267.49 340.11 268.59Q339.89 267.49 339.23 266.15L339.22 266.13Q338.58 264.77 337.59 263.59Q339.49 263.42 341.06 262.61Q341.31 262.48 341.55 262.34Q342.71 261.65 343.06 260.66Q343.21 260.24 343.21 259.77Q343.24 260.36 343.49 260.85Q343.86 261.57 344.7 262.05Q344.81 262.12 344.93 262.18Q346.34 262.9 348.14 262.85Q350.09 262.81 351.58 261.95Q352.36 261.51 352.74 260.84Q353.09 260.21 353.09 259.39Q353.09 259.76 353.22 260.07Q353.55 260.89 354.73 261.37Q356.39 262 358.49 262Q360.59 262 362.22 261.37Q363.43 260.89 363.76 260.06Q363.88 259.75 363.88 259.39Q366.64 260.64 367.05 260.11Q367.07 260.08 367.08 260.05Q367.1 260.01 367.11 259.97Q367.24 259.32 364.5 258.09Q365.17 257.97 365.66 257.61Q366.35 257.1 366.69 256.12Q367.3 254.41 367.18 252.16Q367.11 250.58 366.72 249.08Q366.55 248.43 366.33 247.79Q365.59 245.69 364.35 244.4Q363.52 243.54 362.58 243.38Q362.1 243.3 361.59 243.4Q361.9 243.09 362.06 242.71Q362.48 241.76 361.93 240.39Q361.2 238.49 359.44 236.81Q357.68 235.1 355.83 234.36Q354.57 233.84 353.65 234.2Q353.24 234.36 352.9 234.71Q353.46 233.19 352.97 232.18Q352.85 231.93 352.65 231.7Q352.19 231.17 351.61 230.93Q350.99 230.67 350.24 230.75Q349.97 230.78 349.72 230.87Q348.65 231.25 347.99 232.8Q348.06 232.12 347.85 231.54Q347.47 230.5 346.18 229.8Q344.21 228.7 341.55 228.5Q338.88 228.28 336.74 229.04Q335.36 229.53 334.83 230.48Q334.53 231.02 334.49 231.7Q334.28 230.98 333.82 230.5Q333.19 229.85 332.1 229.65Q330.19 229.29 328 229.94Q325.8 230.6 324.33 231.9Q323.51 232.64 323.33 233.51Q323.19 234.17 323.41 234.9Q323.16 234.68 322.87 234.57Q322.1 234.26 321.04 234.71Q319.6 235.29 318.08 236.66Q316.59 238 315.4 239.71Q314.2 241.39 313.84 242.96Q313.58 244.1 314.02 244.84Q314.17 245.09 314.4 245.3Q311.81 244.53 310.56 245.5Q310.5 245.54 310.44 245.59Q309.83 246.13 309.64 246.79Q309.44 247.48 309.69 248.3Q309.7 248.34 309.71 248.38Q310.26 249.91 312.88 250.7Q312.26 250.7 311.74 250.93Q310.86 251.33 310.3 252.41Q309.39 254.09 309.39 256.41Q309.39 258.7 310.3 260.41Q310.79 261.35 311.57 261.76Q312.2 262.1 313.01 262.1Q312.48 262.34 312.14 262.74Q311.49 263.5 311.49 264.81Q311.49 266.79 312.49 269.06Q313.49 271.3 314.98 272.64Q316 273.55 317.01 273.53Q317.5 273.53 317.99 273.3Q316.96 274.66 317.07 275.93Q317.08 276.14 317.13 276.35Q317.29 276.97 317.6 277.49Q318.03 278.18 318.74 278.7Q319.43 279.2 320.2 279.38Q320.81 279.52 321.48 279.46Q321.8 279.42 322.1 279.32Q323.22 278.97 324.09 277.8Q323.66 279.34 324.14 280.51Q324.31 280.93 324.6 281.31Q325.13 281.98 325.8 282.43Q326.53 282.91 327.43 283.14Q328.55 283.44 329.6 283.28Q330.2 283.19 330.78 282.95Q331.13 282.81 331.43 282.6ZM440.22 237.13Q439.31 236.39 437.81 236.39Q438 233.39 436.78 231.85Q435.77 230.52 434.45 230.08Q434.22 230 433.97 229.94Q432.87 229.71 431.91 229.98Q431.49 230.09 431.09 230.31Q430.47 230.64 430.14 231.16Q429.8 231.71 429.8 232.48Q429.8 231.59 429.4 230.94Q429.04 230.37 428.38 229.99Q428.26 229.92 428.14 229.86Q426.83 229.19 425.18 229.19Q423.84 229.19 422.7 229.68Q422.33 229.83 421.99 230.04Q421.36 230.43 421.01 230.99Q420.59 231.67 420.59 232.61Q419.48 231.84 418.5 231.98Q418.08 232.04 417.69 232.26Q417.03 232.64 416.67 233.21Q416.32 233.75 416.25 234.46Q416.21 234.81 416.28 235.13Q416.48 236.16 417.69 237Q417.39 236.8 417.05 236.72Q416.19 236.51 415.13 237.1Q413.68 237.9 412.39 239.56Q411.76 240.36 411.23 241.22Q410.68 242.13 410.24 243.1Q409.39 244.98 409.49 246.5Q409.22 246.28 408.91 246.13Q408.1 245.7 407.04 245.74Q406.01 245.78 405.25 246.25Q404.95 246.44 404.7 246.69Q404.6 245.11 403.65 243.15Q403.15 242.12 402.53 241.16Q401.98 240.31 401.33 239.52Q399.99 237.81 398.65 236.95Q397.68 236.34 396.85 236.48Q396.52 236.53 396.2 236.71Q396.34 236.35 396.32 236.01Q396.29 235.06 395.18 234.14Q393.69 232.9 391.39 232.04Q389.1 231.19 387.15 231.19Q385.68 231.19 385.04 231.92Q384.83 232.16 384.71 232.48Q384.37 231.83 383.84 231.47Q383.24 231.07 382.39 231.04Q380.8 230.99 379.14 231.85Q377.5 232.7 376.65 234.05Q376.22 234.73 376.18 235.42Q376.15 236.1 376.5 236.81Q374.96 236.81 373.95 237.53Q373.52 237.85 373.18 238.29Q372.85 238.74 372.62 239.24Q372.08 240.39 372.08 241.79Q372.08 243.14 372.59 244.27Q372.83 244.81 373.18 245.3Q373.52 245.75 373.95 246.06Q374.96 246.79 376.5 246.79Q376 246.79 375.58 246.97Q374.71 247.32 374.13 248.4Q373.3 249.99 372.99 252.31Q372.84 253.46 372.84 254.6Q372.84 255.75 372.99 256.9Q373.3 259.19 374.13 260.8Q374.7 261.85 375.55 262.21Q375.99 262.39 376.5 262.39Q375.71 262.39 375.1 262.72Q374.3 263.14 373.79 264.1Q372.89 265.78 372.89 268.01Q372.89 270.2 373.79 271.91Q374.29 272.84 375.07 273.26Q375.7 273.6 376.5 273.6Q375.97 274.22 375.85 274.92Q375.71 275.67 376.04 276.5Q376.19 276.86 376.38 277.2Q377.02 278.35 378.14 279.24Q379.48 280.29 380.96 280.56Q381.1 280.59 381.24 280.6Q382.04 280.7 382.71 280.45Q383.43 280.17 384 279.51Q384 280.16 384.27 280.68Q384.61 281.33 385.39 281.75Q385.43 281.77 385.46 281.79Q386.85 282.48 388.59 282.48Q390.39 282.48 391.79 281.75Q392.59 281.32 392.94 280.65Q393.2 280.14 393.2 279.51Q394.3 279.6 395.15 279.19Q396 278.77 396.6 277.85Q396.9 277.38 397.12 276.87Q397.79 275.39 397.79 273.6Q397.79 271.66 396.88 270.37Q396.67 270.06 396.4 269.79Q397.43 270 398.25 269.68Q399.02 269.37 399.6 268.59L399.63 268.63Q400.91 270.22 402.7 271.4Q404.51 272.6 406.24 272.96Q407.49 273.21 408.31 272.72Q408.64 272.52 408.9 272.21Q410.58 273.89 411.73 273.89Q412.33 273.89 412.64 273.59Q412.93 273.3 412.95 272.74Q413 271.6 411.29 269.79Q412.72 270.65 413.82 270.35Q414.12 270.27 414.39 270.1Q415.05 269.7 415.4 269.11Q415.74 268.53 415.78 267.79Q416.1 268.2 416.51 268.4Q416.91 268.59 417.4 268.59Q417.02 268.97 416.84 269.43Q416.5 270.29 416.88 271.45Q417.08 272.01 417.46 272.39Q418.26 273.21 419.89 273.21Q417.59 273.21 416.56 274.35Q416.39 274.54 416.25 274.77Q415.79 275.51 415.76 276.26Q415.73 277.08 416.2 277.92Q416.34 278.17 416.53 278.38Q417.53 279.51 419.79 279.51Q419.79 281.42 420.74 282.3Q420.98 282.52 421.28 282.68Q422.06 283.09 422.83 283.08Q423.56 283.07 424.28 282.68Q424.6 282.51 424.85 282.28Q425.79 281.39 425.79 279.51Q425.79 280.1 426.03 280.57Q426.42 281.37 427.48 281.85Q429.19 282.6 431.39 282.6Q433.61 282.6 435.29 281.85Q436.38 281.37 436.77 280.55Q437 280.08 437 279.51Q438.48 279.71 439.36 279.08Q439.74 278.82 440 278.41Q440.5 277.63 440.57 276.82Q440.63 276.15 440.39 275.45Q440.26 275.01 439.99 274.67Q439.31 273.81 437.81 273.6Q438.35 273.6 438.82 273.41Q439.72 273.05 440.35 272.01Q441.3 270.4 441.59 268.1Q441.78 266.56 441.72 265.04Q441.69 264.26 441.59 263.49Q441.3 261.19 440.35 259.61Q439.71 258.54 438.8 258.18Q438.34 258 437.81 258Q440.69 258 441.64 256.9Q442.12 256.35 442.12 255.8Q442.12 255.25 441.64 254.7Q440.69 253.6 437.81 253.6Q438.47 253.6 439 253.33Q439.66 253 440.1 252.26Q440.33 251.87 440.5 251.45Q440.91 250.41 440.91 249.21Q440.91 247.84 440.39 246.71Q440.26 246.43 440.1 246.16Q439.65 245.38 438.97 245.05Q438.45 244.79 437.81 244.79Q439.35 244.79 440.27 244.03Q440.53 243.82 440.74 243.54Q441.05 243.14 441.26 242.68Q441.69 241.75 441.69 240.61Q441.69 239.41 441.21 238.43Q441.02 238.02 440.74 237.66Q440.51 237.36 440.22 237.13ZM449.53 278.98Q450.31 280 452.31 280.09Q452.45 281.64 453.3 282.39Q453.6 282.66 453.99 282.82Q454.8 283.18 455.57 283.11Q456.25 283.06 456.9 282.68Q457.1 282.56 457.28 282.41Q458.29 281.54 458.29 279.51Q458.29 281.58 459.32 282.52Q459.53 282.71 459.78 282.85Q460.55 283.29 461.32 283.28Q462.05 283.27 462.78 282.85Q463.05 282.7 463.28 282.49Q464.29 281.55 464.29 279.51Q464.29 279.95 464.44 280.33Q464.75 281.17 465.73 281.75Q467.2 282.6 469.4 282.9Q470.5 283.04 471.59 283.04Q472.69 283.04 473.79 282.9Q475.99 282.6 477.48 281.75Q478.55 281.14 478.86 280.27Q478.99 279.91 478.99 279.51Q479.11 280.74 479.76 281.55Q480.17 282.05 480.77 282.39Q481.31 282.69 481.89 282.87Q483.04 283.22 484.34 283.09Q485.79 282.95 486.94 282.27Q487.33 282.04 487.68 281.75Q488.23 281.31 488.55 280.74Q489.06 279.83 489 278.6Q490 281.19 491.44 281.65Q492.2 281.88 492.76 281.64Q493.29 281.42 493.64 280.8Q494.4 279.51 493.4 276.89Q493.68 277.1 493.99 277.18Q494.9 277.41 496.08 276.55Q497.69 275.4 499.18 273.45Q500.7 271.5 501.33 269.64Q501.85 268.18 501.34 267.38Q501.2 267.17 500.99 267.01Q503.45 267.1 504.38 265.95Q504.43 265.88 504.48 265.81Q504.93 265.16 504.96 264.49Q504.98 263.8 504.58 263.1Q504.52 263 504.46 262.92Q503.62 261.7 501.18 261.59Q502.56 261.04 503.14 260.03Q503.29 259.78 503.38 259.51Q503.64 258.79 503.62 258.08Q503.61 257.39 503.33 256.7Q502.99 255.81 502.37 255.2Q502.01 254.85 501.55 254.6Q501.41 254.52 501.26 254.46Q500.1 253.96 498.5 254.51Q498.73 254.12 498.8 253.71Q498.96 252.71 498.13 251.55Q496.98 249.89 494.93 248.65Q492.91 247.4 490.91 247.16Q489.57 246.98 488.77 247.55Q488.37 247.83 488.1 248.3Q488.14 247.57 487.89 246.96Q487.53 246.05 486.54 245.4Q484.9 244.3 482.58 243.96Q480.68 243.65 478.88 243.96Q478.5 244.02 478.14 244.1Q476.1 244.57 475.09 245.85Q475.04 245.91 474.99 245.98Q475.4 244.4 475.09 243.54Q474.91 243.04 474.57 242.84Q474.32 242.69 473.99 242.69Q474.12 242.12 474.17 241.55Q474.28 240 473.69 238.39Q473.2 237.04 472.24 236.52Q471.65 236.19 470.89 236.19Q473.6 234.9 473.99 233.56Q474.2 232.86 473.96 232.39Q473.73 231.94 473.08 231.7Q471.79 231.19 469.1 232.48Q469.1 232.2 469.02 231.94Q468.74 231.12 467.59 230.6Q466.1 229.9 463.9 229.65Q463.3 229.58 462.7 229.55Q461.1 229.47 459.48 229.65Q457.29 229.9 455.77 230.6Q454.65 231.12 454.38 231.92Q454.28 232.19 454.28 232.48Q452.66 232.2 451.5 232.8Q451.1 233.01 450.74 233.34Q450.35 233.71 450.04 234.14Q449.29 235.16 449.04 236.54Q448.82 237.77 449.06 238.91Q449.2 239.57 449.5 240.2Q449.75 240.73 450.13 241.13Q450.98 242.03 452.5 242.3Q452.07 242.3 451.7 242.44Q450.66 242.83 450.04 244.3Q449.21 246.3 449.21 249.01Q449.21 251.7 450.04 253.75Q450.67 255.28 451.73 255.67Q452.09 255.8 452.5 255.8Q449.89 255.8 448.99 257Q448.54 257.59 448.54 258.19Q448.54 258.79 448.99 259.39Q449.89 260.58 452.5 260.58Q450.32 260.58 449.41 261.66Q449.31 261.78 449.23 261.9Q448.82 262.55 448.82 263.2Q448.82 263.84 449.23 264.49Q449.3 264.6 449.38 264.7Q450.28 265.78 452.5 265.78Q451.59 265.78 450.92 266.19Q450.34 266.54 449.94 267.2Q449.92 267.22 449.91 267.25Q449.08 268.62 449.08 270.5Q449.08 272.22 449.79 273.59Q449.86 273.73 449.94 273.87Q450.35 274.56 450.95 274.92Q451.5 275.24 452.22 275.29Q450.48 275.26 449.69 276.11Q449.59 276.23 449.5 276.35Q449.11 276.92 449.07 277.5Q449.03 278.11 449.38 278.75Q449.45 278.87 449.53 278.98ZM188.01 249.05Q188.56 249.19 189.2 248.99Q189.2 249.26 189.12 249.51Q188.87 250.25 187.88 250.75Q186.59 251.4 184.78 251.92Q183 252.41 181.53 252.92Q180.09 253.41 179.8 254.19Q180.15 253.06 179.74 252.38Q179.58 252.1 179.29 251.89Q178.82 251.56 178.35 251.56Q177.82 251.56 177.29 251.99Q177.35 251.77 177.34 251.55Q177.32 250.97 176.85 250.4Q176.39 249.85 175.82 249.68Q175.56 249.6 175.28 249.6Q175.89 248.99 176.09 247.84Q176.28 246.69 175.99 245.89Q176.58 246.16 177.06 246.02Q177.31 245.95 177.53 245.77Q177.76 245.57 177.87 245.32Q178.09 244.86 177.9 244.2Q178.24 244.49 178.62 244.57Q179.14 244.68 179.75 244.4Q180.09 244.23 180.3 243.97Q180.63 243.54 180.64 242.85Q180.73 243.47 181.08 243.85Q181.25 244.03 181.48 244.15Q181.99 244.4 182.47 244.37Q182.86 244.35 183.24 244.15Q183.45 244.04 183.61 243.88Q184.1 243.38 184.1 242.4Q184.1 243.49 184.59 244.01Q185.01 244.41 185.48 244.48Q185.58 244.5 185.68 244.5Q185.67 244.58 185.67 244.67Q185.55 246.2 186.54 247.82Q187.17 248.84 188.01 249.05ZM544.51 249.05Q545.06 249.19 545.7 248.99Q545.7 249.26 545.62 249.51Q545.37 250.25 544.38 250.75Q543.09 251.4 541.28 251.92Q539.5 252.41 538.03 252.92Q536.59 253.41 536.3 254.19Q536.65 253.06 536.24 252.38Q536.08 252.1 535.79 251.89Q535.32 251.56 534.85 251.56Q534.32 251.56 533.78 251.99Q533.85 251.77 533.84 251.55Q533.82 250.97 533.35 250.4Q532.89 249.85 532.32 249.68Q532.06 249.6 531.78 249.6Q532.39 248.99 532.59 247.84Q532.78 246.69 532.49 245.89Q533.08 246.16 533.56 246.02Q533.81 245.95 534.03 245.77Q534.26 245.57 534.37 245.32Q534.59 244.86 534.4 244.2Q534.74 244.49 535.12 244.57Q535.64 244.68 536.25 244.4Q536.59 244.23 536.8 243.97Q537.13 243.54 537.14 242.85Q537.23 243.47 537.58 243.85Q537.75 244.03 537.98 244.15Q538.49 244.4 538.97 244.37Q539.36 244.35 539.74 244.15Q539.95 244.04 540.11 243.88Q540.6 243.38 540.6 242.4Q540.6 243.49 541.09 244.01Q541.51 244.41 541.98 244.48Q542.08 244.5 542.18 244.5Q542.17 244.58 542.17 244.67Q542.05 246.2 543.04 247.82Q543.67 248.84 544.51 249.05ZM337.84 249.79Q337.1 250.25 337.1 251.89Q335.62 251.89 334.91 251.15Q334.75 250.99 334.64 250.79Q334.38 250.35 334.01 250.04Q333.47 249.58 332.68 249.4Q332.88 249.39 333.06 249.34Q333.95 249.1 334.64 248.11Q334.84 247.82 335.02 247.51Q335.58 246.53 335.88 245.4Q336.3 243.89 336 242.79Q336.91 243.2 338.15 243.1Q339.4 243.01 340.3 242.49Q339.98 243.79 340.79 245.5Q341.59 247.21 342.79 248.08Q341.79 248.4 340.89 249.21Q339.98 249.99 339.69 250.89Q339.43 249.91 338.87 249.68Q338.58 249.56 338.2 249.65Q338 249.69 337.84 249.79ZM123.8 263.88Q124.03 263.98 124.29 264Q120.9 265.59 118.09 265.69Q115.31 265.78 113.89 266.59Q114.18 265.3 113.84 263.51Q113.5 261.71 112.65 260.36Q111.99 259.31 111.18 259.19Q111.1 259.17 111.02 259.17Q111.37 259.12 111.65 258.95Q112.19 258.62 112.48 257.85Q112.74 257.17 112.78 256.47Q112.81 255.8 112.65 255.12Q112.43 254.22 111.86 253.77Q111.53 253.51 111.08 253.41Q111.24 253.41 111.39 253.38Q112.33 253.22 113.09 252.02Q113.99 250.6 114.43 248.74Q114.89 246.89 114.6 245.5Q115.07 245.81 115.49 245.74Q115.58 245.73 115.67 245.69Q115.76 245.66 115.84 245.61Q116.2 245.36 116.28 244.69Q116.63 245.23 117.13 245.56Q117.63 245.9 118.29 246.01Q119.12 246.13 119.79 245.86Q120.18 245.69 120.51 245.4Q120.39 246.79 120.92 248.65Q121.48 250.5 122.44 251.89Q123.36 253.25 124.34 253.28Q124.36 253.28 124.39 253.28Q124.35 253.3 124.31 253.31Q123.37 253.67 122.88 255.21Q122.39 256.8 122.34 258.85Q122.29 260.9 122.73 262.42Q123.08 263.55 123.8 263.88ZM471.04 263.83Q470.75 263.68 470.4 263.68Q470.9 263.68 471.25 263.46Q471.67 263.18 471.89 262.59Q472.17 261.84 472.17 261.09Q472.17 260.74 472.11 260.39Q472.19 260.41 472.27 260.43Q473.4 260.67 474.69 260.1Q475.61 259.69 476.02 258.99Q476.23 258.63 476.31 258.19Q476.6 259.1 477.84 259.8Q479.09 260.49 480.63 260.8Q482.19 261.1 483.29 260.8Q483.22 260.94 483.17 261.07Q482.94 261.75 483.14 262.59Q483.34 263.41 483.86 263.91Q483.97 264.01 484.09 264.1Q482.8 264.49 481.43 265.86Q480.09 267.2 479.99 268.49Q479.87 268.31 479.72 268.16Q479.14 267.55 478.09 267.4Q477.14 267.25 476.32 267.52Q476.02 267.61 475.74 267.76Q475.31 267.99 475.05 268.34Q474.69 268.84 474.69 269.59Q474.69 268.76 474.28 268.34Q474.1 268.16 473.84 268.06Q473.34 267.84 472.9 267.93Q472.59 267.99 472.3 268.2Q472.4 266.91 471.98 265.3Q471.71 264.16 471.04 263.83Z" fill="#5C74AA" fill-opacity="1.000000" fill-rule="evenodd"/>
	<ellipse id="Эллипс 1" cx="334.027039" cy="39.000000" rx="35.027027" ry="36.000000" fill="#B80092" fill-opacity="1.000000"/>
	<g filter="url(#filter_2_55_dd)">
		<ellipse id="Эллипс 2" cx="338.000000" cy="184.500000" rx="19.000000" ry="3.500000" fill="#000000" fill-opacity="0.390805"/>
	</g>
	<path id="Форма 1" d="M304.38 72.1C319.2 79.11 342.85 84.13 362.07 72.51C364.7 70.92 368.77 73.49 367.95 76.46L338.7 181.75C337.9 184.63 333.85 184.7 332.95 181.85L299.54 76.06C298.69 73.36 301.82 70.89 304.38 72.1Z" fill="#B80092" fill-opacity="1.000000" fill-rule="evenodd"/>
	<path id="Форма 2" d="M311.59 105.75L295.92 132.74C295.41 133.63 294.13 133.25 294.22 132.23C295.18 122.08 298.93 107.34 302.29 98.84C305.08 91.78 310.16 84.53 313.69 79.43C314.31 78.54 315.85 79.14 315.68 80.21L311.71 105.4C311.69 105.52 311.65 105.64 311.59 105.75Z" fill="#B80092" fill-opacity="1.000000" fill-rule="evenodd"/>
	<path id="Форма 2" d="M362.56 107.12L376.6 133.24C377.1 134.17 378.41 133.8 378.28 132.74C377.06 122.64 373.09 108.29 369.61 99.98C366.92 93.56 363.28 89.31 360.32 85.79C359.61 84.94 357.91 85.72 358.14 86.81L362.47 106.86C362.49 106.95 362.52 107.04 362.56 107.12Z" fill="#B80092" fill-opacity="1.000000" fill-rule="evenodd"/>
	<circle id="Эллипс 1" cx="244.500000" cy="37.500000" r="37.500000" fill="#0092B8" fill-opacity="1.000000"/>
	<g filter="url(#filter_2_54_dd)">
		<ellipse id="Эллипс 2" cx="248.000000" cy="186.500000" rx="19.000000" ry="3.500000" fill="#000000" fill-opacity="0.390805"/>
	</g>
	<path id="Форма 1" d="M206.2 71.94C224.52 79.72 255.2 86.26 279.68 72.93C282.34 71.48 285.99 74.19 285 77.05L247.73 184.13C246.81 186.78 243.07 186.82 242.09 184.19L201.79 75.99C200.82 73.39 203.65 70.86 206.2 71.94Z" fill="#0092B8" fill-opacity="1.000000" fill-rule="evenodd"/>
	<path id="Форма 2" d="M210.88 105.58L196.37 133.21C195.89 134.12 194.6 133.8 194.65 132.77C195.18 122.6 198.3 107.71 201.3 99.07C203.79 91.9 208.56 84.44 211.87 79.2C212.45 78.28 214.01 78.81 213.89 79.89L210.99 105.23C210.97 105.35 210.94 105.47 210.88 105.58Z" fill="#0092B8" fill-opacity="1.000000" fill-rule="evenodd"/>
	<path id="Форма 2" d="M277.45 106.07L293.64 132.74C294.18 133.62 295.45 133.22 295.33 132.2C294.18 122.08 290.14 107.41 286.61 98.98C283.68 91.98 278.46 84.83 274.83 79.8C274.19 78.92 272.67 79.55 272.86 80.62L277.32 105.73C277.34 105.85 277.39 105.96 277.45 106.07Z" fill="#0092B8" fill-opacity="1.000000" fill-rule="evenodd"/>
	<g filter="url(#filter_2_52_dd)">
		<ellipse id="Эллипс 2" cx="166.000000" cy="197.500000" rx="14.000000" ry="3.500000" fill="#000000" fill-opacity="0.390805"/>
	</g>
	<ellipse id="Эллипс 1" cx="160.500000" cy="105.457916" rx="25.499998" ry="25.457920" fill="#0271B5" fill-opacity="1.000000"/>
	<path id="Форма 1" d="M137.35 129.24C148.58 133.89 166.77 137.9 181.13 130.17C182.84 129.25 185.18 130.85 184.67 132.73L167.45 196.6C166.96 198.42 164.47 198.62 163.7 196.9L134.43 132.12C133.65 130.37 135.58 128.51 137.35 129.24Z" fill="#0271B5" fill-opacity="1.000000" fill-rule="evenodd"/>
	<path id="Форма 2" d="M183.81 136.3L196.96 127.97C197.63 127.55 198.48 128.03 198.38 128.81C197.94 132.27 196.26 136.38 193 139.5C190.07 142.29 185.49 144.87 182.25 146.7C181.45 147.15 180.49 146.38 180.75 145.51L183.39 136.85C183.46 136.62 183.61 136.42 183.81 136.3Z" fill="#0271B5" fill-opacity="1.000000" fill-rule="evenodd"/>
	<ellipse id="Эллипс 1" rx="25.499998" ry="25.458027" transform="matrix(-1 0 0 1 413 105.458)" fill="#0271B5" fill-opacity="1.000000"/>
	<g filter="url(#filter_2_53_dd)">
		<ellipse id="Эллипс 2" cx="410.000000" cy="197.500000" rx="14.000000" ry="3.500000" fill="#000000" fill-opacity="0.390805"/>
	</g>
	<path id="Форма 1" d="M436.47 129.1C425.39 133.76 407.23 137.9 392.8 130.4C391.03 129.49 388.62 131.23 389.22 133.12L409.32 196.7C409.89 198.49 412.38 198.58 413.08 196.85L439.41 131.87C440.11 130.14 438.2 128.38 436.47 129.1Z" fill="#0271B5" fill-opacity="1.000000" fill-rule="evenodd"/>
	<path id="Форма 2" d="M390.18 136.3L376.52 127.93C375.85 127.52 375.01 128 375.11 128.78C375.54 132.24 377.23 136.37 380.5 139.5C383.44 142.31 388.71 145.55 392.21 147.64C393.01 148.11 393.97 147.34 393.69 146.47L390.61 136.85C390.54 136.62 390.38 136.43 390.18 136.3Z" fill="#0271B5" fill-opacity="1.000000" fill-rule="evenodd"/>
</svg>
